<?xml version="1.0" encoding="UTF-8"?>
<svg version="1.1" xmlns="http://www.w3.org/2000/svg" width="900" height="900">
<path d="M0 0 C297 0 594 0 900 0 C900 297 900 594 900 900 C603 900 306 900 0 900 C0 603 0 306 0 0 Z " fill="#003EA4" transform="translate(0,0)"/>
<path d="M0 0 C0 105.27 0 210.54 0 319 C-297 319 -594 319 -900 319 C-900 280.39 -900 241.78 -900 202 C-887.46 199.36 -874.92 196.72 -862 194 C-858.04 193.01 -854.08 192.02 -850 191 C-847.66322691 190.49120345 -845.32265725 189.9990763 -842.9765625 189.53515625 C-841.77 189.29216797 -840.5634375 189.04917969 -839.3203125 188.79882812 C-836.86503258 188.30958894 -834.40930435 187.8225941 -831.953125 187.33789062 C-825.87689755 186.11033721 -819.93089337 184.73909339 -813.98828125 182.96875 C-805.73238657 180.53635442 -797.36958058 179.21102385 -788.88476562 177.84570312 C-782.76547167 176.81744738 -777.61421685 175.59551734 -772 173 C-769.57785839 172.4484232 -767.137645 171.97212964 -764.6875 171.5625 C-763.25996913 171.31243735 -761.83289833 171.05973702 -760.40625 170.8046875 C-759.30990234 170.60891113 -759.30990234 170.60891113 -758.19140625 170.40917969 C-752.32718443 169.31421135 -746.5211039 167.92502742 -740.70410156 166.60644531 C-737.64648015 165.92071657 -734.58527947 165.25256412 -731.5234375 164.5859375 C-716.56869445 161.32109428 -716.56869445 161.32109428 -701.75 157.5 C-692.78023826 155.02051301 -683.66842391 153.33222076 -674.52908325 151.61877441 C-664.67610837 149.76854269 -654.95290969 147.64573553 -645.26171875 145.078125 C-641.39286966 144.06138748 -637.49844621 143.28097905 -633.56567383 142.55371094 C-631.57903943 142.1249654 -629.6125818 141.60217545 -627.65893555 141.04199219 C-623.97907483 139.99404093 -620.30320896 139.14587746 -616.5625 138.34375 C-615.87873291 138.19595093 -615.19496582 138.04815186 -614.49047852 137.89587402 C-611.59953104 137.27105847 -608.70743447 136.65163828 -605.81542969 136.03173828 C-603.68904255 135.57512563 -601.56326624 135.11574313 -599.4375 134.65625 C-598.17808594 134.38619141 -596.91867187 134.11613281 -595.62109375 133.83789062 C-592.03964001 133.00917236 -588.53019224 132.02254403 -585 131 C-583.31801824 130.69677679 -581.62993729 130.42553987 -579.9375 130.1875 C-573.79291536 129.21278797 -567.75102408 127.88009873 -561.6875 126.5 C-560.74447021 126.28625732 -559.80144043 126.07251465 -558.82983398 125.85229492 C-555.02463461 124.97743957 -551.25643828 124.07392299 -547.50390625 122.9921875 C-542.79502799 121.65879276 -538.03454088 120.64788806 -533.25 119.625 C-532.24155029 119.40730957 -531.23310059 119.18961914 -530.1940918 118.96533203 C-524.53713015 117.74718331 -518.87544192 116.55324779 -513.21020508 115.37426758 C-504.52532317 113.56583834 -495.91545794 111.58325492 -487.34375 109.2890625 C-479.72573557 107.29896322 -472.04571021 105.82398085 -464.29711914 104.44555664 C-459.92972958 103.64939054 -456.12319432 102.65055228 -452 101 C-448.52065097 100.18077726 -445.01390152 99.52751266 -441.5 98.875 C-440.56285156 98.69324219 -439.62570312 98.51148438 -438.66015625 98.32421875 C-434.3615131 97.51326905 -430.38834081 96.89937687 -426 97 C-426 96.34 -426 95.68 -426 95 C-425.05906494 94.80889648 -424.11812988 94.61779297 -423.14868164 94.42089844 C-401.06694159 89.97138981 -401.06694159 89.97138981 -379.109375 84.95703125 C-373.81003675 83.69101881 -368.46361301 82.64768535 -363.125 81.5625 C-355.03933895 79.91068603 -347.06288928 78.04558228 -339.10009766 75.88183594 C-332.93112005 74.21525403 -326.73084621 72.72970381 -320.5 71.3125 C-319.61618652 71.11011719 -318.73237305 70.90773438 -317.82177734 70.69921875 C-313.36645852 69.69633325 -308.91402664 68.7953838 -304.4140625 68.015625 C-298.69213881 66.99876493 -293.21013654 65.44273008 -287.65234375 63.76757812 C-283.11758396 62.44859263 -278.79846209 61.6865025 -274.09912109 61.24438477 C-271.09018581 60.89407723 -268.27990934 60.09582086 -265.375 59.25 C-256.09334697 56.65348239 -246.68279894 54.69397327 -237.25830078 52.69287109 C-233.82605905 51.96301181 -230.39532536 51.22636736 -226.96484375 50.48828125 C-207.52573853 46.30903158 -207.52573853 46.30903158 -200.03515625 44.765625 C-199.1440918 44.58136963 -198.25302734 44.39711426 -197.33496094 44.20727539 C-195.69698052 43.86975504 -194.05833899 43.53542163 -192.41894531 43.20483398 C-188.91556241 42.72791926 -188.91556241 42.72791926 -186 41 C-183.32941149 40.85884839 -180.67567762 40.95752893 -178 41 C-178 40.34 -178 39.68 -178 39 C-177.13503906 38.85304688 -176.27007813 38.70609375 -175.37890625 38.5546875 C-166.65039093 37.00017198 -158.05087921 35.10227478 -149.4375 33 C-135.1694827 29.52593649 -135.1694827 29.52593649 -128.3125 28.125 C-127.21550781 27.90070312 -126.11851562 27.67640625 -124.98828125 27.4453125 C-121.94656515 26.99203716 -119.07054061 26.91713684 -116 27 C-116 26.34 -116 25.68 -116 25 C-114.3456897 24.66790527 -114.3456897 24.66790527 -112.65795898 24.32910156 C-108.49146786 23.49138617 -104.32626031 22.64742703 -100.16137695 21.80175781 C-98.37264866 21.4394269 -96.58359488 21.07869845 -94.79418945 20.71972656 C-84.87248008 18.72815272 -75.07984831 16.57327106 -65.3215332 13.88378906 C-60.54458721 12.61274573 -55.73423849 11.64550921 -50.875 10.75 C-49.98296875 10.57726562 -49.0909375 10.40453125 -48.171875 10.2265625 C-44.03425739 9.44844337 -40.22375182 8.91249004 -36 9 C-36 8.34 -36 7.68 -36 7 C-35.12988281 6.92652344 -35.12988281 6.92652344 -34.2421875 6.8515625 C-33.46101562 6.77679687 -32.67984375 6.70203125 -31.875 6.625 C-31.10929688 6.55539062 -30.34359375 6.48578125 -29.5546875 6.4140625 C-26.94101936 6.06164192 -26.94101936 6.06164192 -24.3046875 5.09375 C-20.01377783 3.67359077 -15.67303367 2.78384253 -11.25 1.875 C-10.38761719 1.69324219 -9.52523437 1.51148438 -8.63671875 1.32421875 C-2.27449483 0 -2.27449483 0 0 0 Z " fill="#FDB71C" transform="translate(900,581)"/>
<path d="M0 0 C0 93.06 0 186.12 0 282 C-215.49 282 -430.98 282 -653 282 C-651.2722113 278.54442259 -647.09640202 277.96756866 -643.625 276.6875 C-635.74265576 273.70652099 -628.0929376 270.41244412 -620.4765625 266.8046875 C-619.67992187 266.43601562 -618.88328125 266.06734375 -618.0625 265.6875 C-617.37285156 265.36136719 -616.68320312 265.03523438 -615.97265625 264.69921875 C-614 264 -614 264 -610 264 C-610 263.34 -610 262.68 -610 262 C-606.54372619 260.66128359 -603.08465703 259.32994608 -599.625 258 C-598.64015625 257.6184375 -597.6553125 257.236875 -596.640625 256.84375 C-595.69960938 256.4828125 -594.75859375 256.121875 -593.7890625 255.75 C-592.91975098 255.41484375 -592.05043945 255.0796875 -591.15478516 254.734375 C-589 254 -589 254 -587 254 C-587 253.34 -587 252.68 -587 252 C-585.82824219 251.55269531 -584.65648437 251.10539063 -583.44921875 250.64453125 C-575.86634874 247.73382848 -568.32580969 244.81206975 -560.9609375 241.37890625 C-550.69456384 236.59786416 -540.3726672 232.05691561 -529.765625 228.0859375 C-526.66246201 226.8674639 -523.72965197 225.44830039 -520.7734375 223.9140625 C-516.45979849 221.69073314 -512.96274126 220 -508 220 C-508 219.34 -508 218.68 -508 218 C-507.34515625 217.74831055 -506.6903125 217.49662109 -506.015625 217.23730469 C-503.00882143 216.07896334 -500.00441218 214.91452914 -497 213.75 C-495.97003906 213.35425781 -494.94007813 212.95851563 -493.87890625 212.55078125 C-488.07765327 210.29679124 -482.53408217 207.84314232 -477 205 C-475.40681359 204.32753554 -473.80399512 203.67682477 -472.1875 203.0625 C-467.80043574 201.34351415 -463.52384877 199.44933003 -459.2421875 197.484375 C-428.71495723 183.50805271 -428.71495723 183.50805271 -420 182 C-420 181.34 -420 180.68 -420 180 C-419.18917969 179.69707031 -418.37835938 179.39414062 -417.54296875 179.08203125 C-411.1335545 176.65704914 -404.86058887 174.07667556 -398.640625 171.203125 C-395.96524108 169.9841631 -393.27774144 168.81488095 -390.5625 167.6875 C-389.78003906 167.36136719 -388.99757813 167.03523437 -388.19140625 166.69921875 C-386 166 -386 166 -382 166 C-382 165.34 -382 164.68 -382 164 C-380.68 164 -379.36 164 -378 164 C-378 163.34 -378 162.68 -378 162 C-377.06800781 161.63648438 -376.13601563 161.27296875 -375.17578125 160.8984375 C-367.65660356 157.94160254 -360.28515032 154.79950324 -352.96875 151.36328125 C-349.6167012 149.82398516 -346.22012199 148.46547444 -342.78515625 147.125 C-338.49597252 145.39248259 -334.27382477 143.5103702 -330.04174805 141.64355469 C-325.8821033 139.81230784 -321.70534095 138.03722211 -317.5 136.3125 C-313.55837307 134.6869773 -309.76560056 132.91003115 -305.9765625 130.9609375 C-302.9512124 129.49011512 -299.82966541 128.28975014 -296.69921875 127.0625 C-289.79187292 124.34354477 -282.96754109 121.47150964 -276.25 118.3125 C-271.8710809 116.29146042 -267.71717972 114.9790373 -263 114 C-263 113.34 -263 112.68 -263 112 C-262.42145264 111.78384033 -261.84290527 111.56768066 -261.24682617 111.3449707 C-251.02370997 107.51549776 -240.86194467 103.69955486 -231 99 C-224.49193548 96 -224.49193548 96 -221 96 C-221 95.34 -221 94.68 -221 94 C-218.10684629 92.84731871 -215.21004513 91.70409257 -212.3125 90.5625 C-211.49587891 90.23701172 -210.67925781 89.91152344 -209.83789062 89.57617188 C-205.91754337 88.03660231 -202.19459951 86.60655105 -198 86 C-198 85.34 -198 84.68 -198 84 C-197.18917969 83.69707031 -196.37835937 83.39414062 -195.54296875 83.08203125 C-190.07727561 81.01410311 -184.67333921 78.90648007 -179.375 76.4375 C-165.50178006 70 -165.50178006 70 -161 70 C-161 69.34 -161 68.68 -161 68 C-157.54372619 66.66128359 -154.08465703 65.32994608 -150.625 64 C-149.64015625 63.6184375 -148.6553125 63.236875 -147.640625 62.84375 C-146.69960938 62.4828125 -145.75859375 62.121875 -144.7890625 61.75 C-143.48509521 61.24726562 -143.48509521 61.24726562 -142.15478516 60.734375 C-140 60 -140 60 -138 60 C-138 59.34 -138 58.68 -138 58 C-134.93978855 56.84798903 -131.87645956 55.70450097 -128.8125 54.5625 C-127.94818359 54.23701172 -127.08386719 53.91152344 -126.19335938 53.57617188 C-125.35224609 53.26357422 -124.51113281 52.95097656 -123.64453125 52.62890625 C-122.87471924 52.34088135 -122.10490723 52.05285645 -121.31176758 51.75610352 C-118.89294999 50.96498745 -116.50262397 50.45097555 -114 50 C-114 49.34 -114 48.68 -114 48 C-111.37646482 46.99600476 -108.75132205 45.99665555 -106.125 45 C-105.00544922 44.57074219 -105.00544922 44.57074219 -103.86328125 44.1328125 C-98.2265625 42 -98.2265625 42 -96 42 C-96 41.34 -96 40.68 -96 40 C-95.3608667 39.75354736 -94.7217334 39.50709473 -94.06323242 39.25317383 C-91.10335112 38.10962578 -88.14542948 36.96108677 -85.1875 35.8125 C-84.18267578 35.42513672 -83.17785156 35.03777344 -82.14257812 34.63867188 C-76.07240301 32.27696387 -70.14346496 29.74400281 -64.27075195 26.92456055 C-62 26 -62 26 -59 26 C-59 25.34 -59 24.68 -59 24 C-55.54372619 22.66128359 -52.08465703 21.32994608 -48.625 20 C-47.64015625 19.6184375 -46.6553125 19.236875 -45.640625 18.84375 C-44.22910156 18.30234375 -44.22910156 18.30234375 -42.7890625 17.75 C-41.91975098 17.41484375 -41.05043945 17.0796875 -40.15478516 16.734375 C-38 16 -38 16 -36 16 C-36 15.34 -36 14.68 -36 14 C-34.24236328 13.32904297 -34.24236328 13.32904297 -32.44921875 12.64453125 C-24.62355553 9.63978997 -16.84761948 6.62214575 -9.26171875 3.04296875 C-2.66292135 0 -2.66292135 0 0 0 Z " fill="#003EA4" transform="translate(900,618)"/>
<path d="M0 0 C120.66037736 0 120.66037736 0 143.10546875 19.86328125 C156.44113585 33.61108817 158.46684491 51.65174302 158.36328125 69.765625 C158.36276155 71.57159423 158.36328349 73.37756404 158.36479187 75.18353271 C158.36470264 78.94893962 158.35437126 82.71413021 158.33618164 86.47949219 C158.3134308 91.2932853 158.31296759 96.1067649 158.31969929 100.92059708 C158.32304712 104.64217899 158.3163949 108.36369004 158.30657005 112.08525848 C158.30273674 113.86018248 158.30156204 115.63511438 158.3031559 117.41004181 C158.30352869 119.89102613 158.2908491 122.37161453 158.2746582 124.85253906 C158.27713562 125.5768512 158.27961304 126.30116333 158.28216553 127.04742432 C158.23416483 131.67950873 157.42365887 135.6040273 156 140 C155.73960937 141.03640625 155.47921875 142.0728125 155.2109375 143.140625 C152.97534146 151.45620652 149.55190942 157.44916748 144 164 C143.1646875 165.00353516 143.1646875 165.00353516 142.3125 166.02734375 C137.7080717 171.08557388 132.08184816 173.99756863 126 177 C127.46641775 184.5215697 129.75617918 191.69678847 132.20361328 198.94702148 C132.87190355 200.92831987 133.53217257 202.91215665 134.19140625 204.89648438 C136.32327949 211.27650005 138.57483685 217.5705763 141.12890625 223.79418945 C142.46646124 227.18118758 143.52234188 230.6374365 144.5625 234.125 C145.97334391 238.74604822 147.42383074 243.31704546 149.1875 247.81640625 C150.62398987 251.67697278 151.87443422 255.60260378 153.1640625 259.51416016 C154.21306979 262.68250972 155.28194988 265.83008804 156.5 268.9375 C158.25397774 273.47025146 159.59626524 278.13699506 161.01464844 282.7824707 C162.73797147 288.34569435 164.7725927 293.74334296 166.984375 299.1328125 C168 302 168 302 169 308 C151.51 308 134.02 308 116 308 C114.68 303.38 113.36 298.76 112 294 C110.88039053 290.94828993 110.88039053 290.94828993 109.71484375 287.9140625 C107.94701381 283.18052878 106.66063814 278.27094361 105.25 273.421875 C103.90575977 268.85705923 102.43097832 264.40858932 100.71875 259.96972656 C99.19253362 255.78714716 98.07760556 251.46928595 96.89453125 247.1796875 C95.9766962 243.95264961 95.04538236 241.0893278 93.51953125 238.0859375 C91.48096668 233.94592206 90.38621718 229.69407424 89.1875 225.25 C87.03703113 217.48996684 84.70555121 209.83052923 82.0925293 202.21386719 C80.25058023 196.8355563 78.63820121 191.4606707 77 186 C68.42 185.67 59.84 185.34 51 185 C51 225.59 51 266.18 51 308 C34.17 308 17.34 308 0 308 C0 206.36 0 104.72 0 0 Z " fill="#FDFDFE" transform="translate(581,231)"/>
<path d="M0 0 C17.16 0 34.32 0 52 0 C52.0093457 7.49581787 52.01869141 14.99163574 52.02832031 22.71459961 C52.06104295 46.71104883 52.11333906 70.70741453 52.17792095 94.70379734 C52.18793815 98.43249536 52.19778232 102.16119382 52.20751953 105.88989258 C52.2094609 106.63219486 52.21140228 107.37449715 52.21340248 108.13929344 C52.24440542 120.15124831 52.26139836 132.16318409 52.27319422 144.17517143 C52.28561464 156.5048346 52.31313611 168.83439771 52.35461307 181.16399771 C52.37972306 188.76921198 52.39311911 196.37426026 52.39142957 203.97951657 C52.39139624 209.81578832 52.41239514 215.65186685 52.44116783 221.48807144 C52.44967995 223.87892402 52.4514079 226.26981198 52.44580269 228.66067314 C52.43916141 231.92905284 52.45708804 235.19642784 52.48101807 238.46470642 C52.47325765 239.40733697 52.46549723 240.34996753 52.45750165 241.32116264 C52.55669555 248.99219806 54.52847245 254.94311066 59.375 260.9375 C64.99911498 265.35644748 70.95370142 265.36475534 77.8125 265.375 C78.66392578 265.39949219 79.51535156 265.42398437 80.39257812 265.44921875 C87.10452161 265.47989024 93.49078974 264.20799049 98.59277344 259.54394531 C104.42743359 252.30252613 104.29713107 242.4090913 104.2784729 233.53427124 C104.2842653 232.52934022 104.2900577 231.52440919 104.29602563 230.48902571 C104.31292456 227.14808673 104.31589341 223.80728674 104.31884766 220.46630859 C104.3281528 218.06091985 104.33832235 215.65553433 104.34928894 213.25015259 C104.37371263 207.41346264 104.38916712 201.57679933 104.40060402 195.74007063 C104.4144095 188.9439504 104.43936992 182.14788469 104.46498732 175.3518004 C104.51037204 163.2337379 104.5470211 151.11566555 104.578125 138.99755859 C104.60834472 127.23126497 104.64271063 115.4649954 104.68261719 103.69873047 C104.68507874 102.97253078 104.68754028 102.2463311 104.69007643 101.49812536 C104.70245169 97.85471809 104.7149081 94.21131109 104.72740483 90.56790423 C104.83084796 60.37863168 104.91847347 30.18934197 105 0 C121.83 0 138.66 0 156 0 C156.0661899 32.79081412 156.12156178 65.58156318 156.15319599 98.37242405 C156.15694791 102.24746902 156.1608309 106.12251384 156.16479492 109.99755859 C156.16558185 110.76898009 156.16636878 111.5404016 156.16717956 112.33519951 C156.18021816 124.81074415 156.20386345 137.28624715 156.23145839 149.76176712 C156.25955568 162.57164304 156.27618539 175.38149721 156.28226548 188.19140267 C156.28637298 196.08989365 156.29932589 203.98826687 156.3237494 211.88672158 C156.34154631 217.95274947 156.34335474 224.01867699 156.33932304 230.08473396 C156.34014624 232.5662642 156.34608507 235.04779902 156.35761642 237.5293026 C156.37263016 240.92779775 156.36892102 244.3257966 156.36076355 247.7243042 C156.36950207 248.69710571 156.3782406 249.66990722 156.38724393 250.67218757 C156.28167759 267.03946802 150.35801435 281.94645755 139.265625 293.86328125 C122.97807675 309.55918779 99.33796961 311.43352231 77.9375 311.375 C77.12084869 311.3737915 76.30419739 311.37258301 75.46279907 311.37133789 C53.15372255 311.28175746 31.71325205 308.63656315 15.04296875 292.2734375 C3.75443147 279.71143234 -0.33912417 264.53067532 -0.24050903 247.96481323 C-0.24221788 246.89862892 -0.24392673 245.83244461 -0.24568737 244.73395169 C-0.24896373 241.18568308 -0.23800913 237.63760646 -0.22705078 234.08935547 C-0.22648627 231.53618881 -0.22680401 228.98302182 -0.22793579 226.42985535 C-0.22839023 220.94553083 -0.22274254 215.46126737 -0.21146011 209.97695541 C-0.19515862 202.04771844 -0.18999237 194.11850443 -0.18748413 186.18925251 C-0.1831143 173.32244431 -0.16982457 160.45566157 -0.15087891 147.58886719 C-0.13250164 135.09505337 -0.11835419 122.60124649 -0.10986328 110.10742188 C-0.10933783 109.33641726 -0.10881239 108.56541264 -0.10827102 107.77104424 C-0.10566081 103.90287617 -0.10313343 100.03470806 -0.10064721 96.16653991 C-0.07993689 64.11100404 -0.04307913 32.05551555 0 0 Z " fill="#FCFDFE" transform="translate(168,231)"/>
<path d="M0 0 C0.6882486 -0.00067474 1.37649719 -0.00134949 2.08560181 -0.00204468 C18.06829596 0.02279372 33.89982241 0.63125025 48.3125 8.25 C49.1684375 8.69214844 50.024375 9.13429687 50.90625 9.58984375 C63.91598909 16.83755334 74.09061436 27.56715025 78.25 42.125 C79.74679 48.44918555 80.43830444 54.69945097 80.42602539 61.19506836 C80.42617142 61.84957977 80.42631744 62.50409119 80.4264679 63.17843628 C80.42577801 65.31560727 80.41802946 67.45268822 80.41015625 69.58984375 C80.40828878 71.08199516 80.40686643 72.57414719 80.40586853 74.06629944 C80.40206925 77.97398604 80.39226135 81.88163486 80.38116455 85.78930664 C80.36908555 90.48839792 80.36453585 95.18750191 80.35871124 99.88660431 C80.34904798 107.0077624 80.3298734 114.12883776 80.3125 121.25 C63.4825 121.25 46.6525 121.25 29.3125 121.25 C29.28671875 117.33511719 29.2609375 113.42023438 29.234375 109.38671875 C29.19588973 105.56723037 29.15075013 101.74787403 29.10498047 97.9284668 C29.07687047 95.28758112 29.05560672 92.64661286 29.04150391 90.00561523 C29.01993689 86.19472276 28.97321298 82.3848128 28.921875 78.57421875 C28.92064636 77.40606125 28.91941772 76.23790375 28.91815186 75.03434753 C28.77761003 67.04933926 28.00334597 58.55084715 22.59222412 52.2454071 C15.24360641 45.32675306 6.40631376 45.73743128 -3.0859375 45.9375 C-8.20166074 46.18473592 -12.61654244 46.95731374 -16.6875 50.25 C-18.30337915 52.17590248 -19.43743263 54.04988144 -20.6875 56.25 C-21.3475 56.25 -22.0075 56.25 -22.6875 56.25 C-23.59382966 60.88038159 -23.83147964 65.35949258 -23.82121277 70.06163025 C-23.8246111 71.2134734 -23.8246111 71.2134734 -23.82807809 72.3885861 C-23.83438862 74.95169982 -23.83359063 77.51476025 -23.83276367 80.07788086 C-23.83575696 81.91960213 -23.83915988 83.76132278 -23.84294128 85.6030426 C-23.85176714 90.59886911 -23.85411877 95.59467849 -23.85475707 100.59051204 C-23.85546825 103.71264686 -23.85760383 106.83477734 -23.86025429 109.95691109 C-23.86950224 120.85140382 -23.87358976 131.74588433 -23.87280273 142.64038086 C-23.87220173 152.79235036 -23.88275949 162.94426676 -23.8985464 173.09622282 C-23.91162339 181.81655341 -23.91698658 190.53686665 -23.91634732 199.25720698 C-23.91609243 204.46363954 -23.91893901 209.67002489 -23.92952538 214.87644768 C-23.93920927 219.77250653 -23.93928351 224.66847303 -23.93200874 229.56453514 C-23.93096335 231.35960271 -23.93332313 233.15467604 -23.9393692 234.94973373 C-23.94709831 237.40372618 -23.94243833 239.8574004 -23.93473816 242.31138611 C-23.93988172 243.01840178 -23.94502529 243.72541745 -23.95032471 244.45385784 C-23.89747436 252.09750932 -22.11655002 258.78033365 -16.6875 264.25 C-9.20479518 270.23616386 2.29435515 269.21608172 11.3125 268.25 C17.71046542 266.79368562 21.77914796 263.86179442 25.3125 258.25 C28.68621617 250.24849403 28.78224642 242.27997463 28.82421875 233.7109375 C28.84110151 232.33515866 28.85925647 230.9593949 28.87861633 229.58364868 C28.92573305 225.99665037 28.95578827 222.40971323 28.98205566 218.82250977 C29.01205692 215.14847823 29.05836241 211.47465266 29.10351562 207.80078125 C29.19062649 200.61717378 29.25089814 193.43405198 29.3125 186.25 C46.1425 186.25 62.9725 186.25 80.3125 186.25 C80.39271762 204.23657272 80.39271762 204.23657272 80.41015625 211.96875 C80.42206081 217.22204688 80.43606569 222.47527331 80.46337891 227.72851562 C80.48528584 231.96901974 80.49710583 236.20944819 80.50225449 240.45000458 C80.50591848 242.05892882 80.51307223 243.66784945 80.52396011 245.27674103 C80.636523 262.61710088 78.80310202 276.98718676 68.3125 291.25 C67.19875 292.796875 67.19875 292.796875 66.0625 294.375 C52.40635814 308.65187558 32.11459022 313.73394332 12.94091797 314.36010742 C-13.05696909 314.77335351 -40.0991922 315.05310413 -60.5 296.3125 C-71.98307043 284.15790498 -76.85408507 268.27368402 -76.82121277 251.77520752 C-76.82347833 250.93592484 -76.82574388 250.09664217 -76.82807809 249.23192668 C-76.83439475 246.42706463 -76.83359022 243.62225118 -76.83276367 240.81738281 C-76.83575664 238.80319151 -76.83915949 236.78900077 -76.84294128 234.77481079 C-76.85177206 229.30772379 -76.85411903 223.84065244 -76.85475707 218.373559 C-76.85546817 214.9559138 -76.85760364 211.53827257 -76.86025429 208.12062836 C-76.8695051 196.19174446 -76.87358956 184.26287174 -76.87280273 172.33398438 C-76.87220221 161.22436568 -76.88274973 150.11479558 -76.8985464 139.00518918 C-76.91163461 129.45934104 -76.91698608 119.91350875 -76.91634732 110.3676517 C-76.91609269 104.66984012 -76.91892492 98.97207173 -76.92952538 93.2742691 C-76.93922773 87.91282361 -76.93927086 82.5514624 -76.93200874 77.19001389 C-76.93096552 75.22688804 -76.93331018 73.26375688 -76.9393692 71.30064011 C-76.99758098 51.12663262 -74.02255966 34.07416197 -59.8125 18.75 C-43.8516416 2.87113231 -21.59003418 0.01894285 0 0 Z " fill="#FCFDFE" transform="translate(449.6875,227.75)"/>
<path d="M0 0 C39.44570136 0 39.44570136 0 46.62109375 4.7265625 C47.22050781 5.35304688 47.81992187 5.97953125 48.4375 6.625 C49.36369141 7.54152344 49.36369141 7.54152344 50.30859375 8.4765625 C55.2003803 15.77470132 55.43603316 23.57793542 55.36328125 32.12109375 C55.36402901 33.83100243 55.36402901 33.83100243 55.36479187 35.57545471 C55.36246198 37.97488151 55.352798 40.37431125 55.33618164 42.77368164 C55.31259428 46.42291401 55.31562921 50.07141382 55.32226562 53.72070312 C55.31668755 56.06250431 55.30957686 58.40430244 55.30078125 60.74609375 C55.30169266 61.82555771 55.30260406 62.90502167 55.30354309 64.01719666 C55.21810899 73.26055228 54.82549487 81.96223597 48.78515625 89.30859375 C36.18650937 101.24560491 14.41715808 96 0 96 C0 64.32 0 32.64 0 0 Z " fill="#033EA3" transform="translate(633,276)"/>
<path d="M0 0 C1.76462683 3.08809695 2 4.23312136 2 8 C1.34 8 0.68 8 0 8 C-0.33 10.31 -0.66 12.62 -1 15 C-0.34 15 0.32 15 1 15 C1.04670765 40.32120918 1.0819828 65.6424119 1.10362434 90.96365547 C1.11393968 102.72057662 1.12800497 114.47747102 1.15087891 126.234375 C1.17080485 136.4809311 1.18371456 146.72746783 1.18817699 156.97404277 C1.19078571 162.40019115 1.19692276 167.82628408 1.21146011 173.2524147 C1.22503141 178.35932127 1.22922353 183.46614954 1.22621536 188.57307243 C1.22676573 190.44757322 1.23074584 192.32207662 1.23841095 194.19656181 C1.24836508 196.75631032 1.24596715 199.31576341 1.24050903 201.8755188 C1.24633472 202.61677667 1.2521604 203.35803454 1.25816262 204.12175477 C1.23319384 208.45581049 0.59283598 211.96972001 -1 216 C-1.33 216 -1.66 216 -2 216 C-2.04674667 189.31365136 -2.08200194 162.62730886 -2.10362434 135.94092751 C-2.1139314 123.54963435 -2.12798088 111.15836666 -2.15087891 98.76708984 C-2.17083019 87.96528429 -2.18372058 77.16349718 -2.18817699 66.36167371 C-2.19078141 60.64364614 -2.19689116 54.92567132 -2.21146011 49.20766068 C-2.22507144 43.82167893 -2.22921545 38.43577149 -2.22621536 33.04977417 C-2.22676394 31.07697521 -2.23072015 29.10417367 -2.23841095 27.13138962 C-2.30646961 8.7671264 -2.30646961 8.7671264 0 0 Z " fill="#F5FAFB" transform="translate(375,272)"/>
<path d="M0 0 C31.02 0 62.04 0 94 0 C94 0.33 94 0.66 94 1 C50.935 1.495 50.935 1.495 7 2 C7 2.33 7 2.66 7 3 C5.02 3 3.04 3 1 3 C1 102.66 1 202.32 1 305 C16.50806242 310.16935414 33.65692821 306.64471583 50 307 C50 266.74 50 226.48 50 185 C50.33 185 50.66 185 51 185 C51 225.59 51 266.18 51 308 C34.17 308 17.34 308 0 308 C0 206.36 0 104.72 0 0 Z " fill="#E0F3FE" transform="translate(581,231)"/>
<path d="M0 0 C1.76462683 3.08809695 2 4.23312136 2 8 C1.34 8 0.68 8 0 8 C-0.33 76.64 -0.66 145.28 -1 216 C-1.33 216 -1.66 216 -2 216 C-2.04674667 189.31365136 -2.08200194 162.62730886 -2.10362434 135.94092751 C-2.1139314 123.54963435 -2.12798088 111.15836666 -2.15087891 98.76708984 C-2.17083019 87.96528429 -2.18372058 77.16349718 -2.18817699 66.36167371 C-2.19078141 60.64364614 -2.19689116 54.92567132 -2.21146011 49.20766068 C-2.22507144 43.82167893 -2.22921545 38.43577149 -2.22621536 33.04977417 C-2.22676394 31.07697521 -2.23072015 29.10417367 -2.23841095 27.13138962 C-2.30646961 8.7671264 -2.30646961 8.7671264 0 0 Z " fill="#B2CEFE" transform="translate(375,272)"/>
<path d="M0 0 C-2.13310935 0.72649376 -4.26906041 1.44182953 -6.41015625 2.14453125 C-7.98663989 2.66527019 -9.55853446 3.20057867 -11.12109375 3.76171875 C-17.83746507 6.02445347 -24.6842307 6.94263426 -31.69262695 7.82226562 C-36.47097721 8.45993835 -40.66212343 9.45669239 -45.1340332 11.25439453 C-50.89631141 13.55689324 -56.31415417 14.3560882 -62.4375 14.625 C-63.16904297 14.66367187 -63.90058594 14.70234375 -64.65429688 14.7421875 C-66.43583532 14.83533984 -68.21788122 14.91870286 -70 15 C-66.86326552 12.90884368 -65.39839455 12.61344626 -61.75 12.125 C-57.12207159 11.41343532 -52.69819271 10.44243015 -48.1875 9.1875 C-40.63950369 7.10422193 -33.03043239 5.42741346 -25.37255859 3.79907227 C-19.02165399 2.44859255 -12.71480715 0.99974744 -6.42578125 -0.6171875 C-3.9182207 -1.01290559 -2.38156661 -0.81430615 0 0 Z " fill="#C0A253" transform="translate(683,631)"/>
<path d="M0 0 C0 0.66 0 1.32 0 2 C-0.7520874 2.14622803 -1.5041748 2.29245605 -2.27905273 2.44311523 C-5.66599137 3.10393656 -9.05174601 3.7706369 -12.4375 4.4375 C-13.62150391 4.66759766 -14.80550781 4.89769531 -16.02539062 5.13476562 C-17.15009766 5.35712891 -18.27480469 5.57949219 -19.43359375 5.80859375 C-20.47572021 6.01282959 -21.51784668 6.21706543 -22.59155273 6.42749023 C-24.93756529 6.76276241 -24.93756529 6.76276241 -26 8 C-27.40139081 8.26017853 -28.81286679 8.4666312 -30.2265625 8.6484375 C-31.09410156 8.76703125 -31.96164063 8.885625 -32.85546875 9.0078125 C-34.67777825 9.2494163 -36.50069089 9.48652069 -38.32421875 9.71875 C-42.41232392 10.2847027 -46.09687185 10.87438054 -49.87109375 12.58984375 C-52.76641434 13.89472606 -54.3362691 14.35072268 -57.4375 14.1875 C-58.613125 14.125625 -59.78875 14.06375 -61 14 C-58.22900193 11.22900193 -55.15397138 10.95945063 -51.4375 10.1875 C-50.6626123 10.02008301 -49.88772461 9.85266602 -49.08935547 9.68017578 C-44.19842873 8.63531762 -39.29481067 7.65985208 -34.38671875 6.69921875 C-33.266604 6.47919189 -32.14648926 6.25916504 -30.99243164 6.0324707 C-28.7727543 5.5990921 -26.55189825 5.1717014 -24.32983398 4.75073242 C-23.30575439 4.5519751 -22.2816748 4.35321777 -21.2265625 4.1484375 C-20.31471191 3.97489746 -19.40286133 3.80135742 -18.46337891 3.62255859 C-16.06768869 3.01710665 -14.17314632 2.15295355 -12 1 C-10 0.5859375 -10 0.5859375 -8 0.375 C-7.01 0.26285156 -7.01 0.26285156 -6 0.1484375 C-4.00487549 0.00036185 -2.00061195 0 0 0 Z " fill="#CBA851" transform="translate(140,753)"/>
<path d="M0 0 C2.15269644 4.30539289 2.27154566 7.32574775 2.22705078 11.98144531 C2.22734283 12.7818222 2.22763489 13.5821991 2.22793579 14.40682983 C2.22654455 17.04737256 2.21099308 19.68763168 2.1953125 22.328125 C2.19158164 24.16086676 2.18873501 25.99361051 2.18673706 27.82635498 C2.17910637 32.64654054 2.15946269 37.46660529 2.1373291 42.28674316 C2.11685855 47.20677048 2.10773275 52.12681735 2.09765625 57.046875 C2.0762163 66.6979697 2.04208712 76.3489748 2 86 C1.67 86 1.34 86 1 86 C1 60.59 1 35.18 1 9 C0.34 9 -0.32 9 -1 9 C-0.67 6.03 -0.34 3.06 0 0 Z " fill="#D3E5FE" transform="translate(737,278)"/>
<path d="M0 0 C-11.28291544 2.6054149 -22.55708749 5.18405529 -33.9296875 7.37109375 C-36.49986385 7.89755481 -38.98081504 8.52681192 -41.5 9.25 C-45.51145368 10.10959722 -48.0275509 9.82759356 -52 9 C-52 8.67 -52 8.34 -52 8 C-51.04738281 7.87882813 -50.09476562 7.75765625 -49.11328125 7.6328125 C-47.85902344 7.46523438 -46.60476563 7.29765625 -45.3125 7.125 C-43.45044922 6.88136719 -43.45044922 6.88136719 -41.55078125 6.6328125 C-38.39963771 6.07122256 -35.92901951 5.22414183 -33 4 C-30.796875 3.62109375 -30.796875 3.62109375 -28.75 3.4375 C-25.21082486 3.41762589 -25.21082486 3.41762589 -24 2 C-16.42241839 0.04054455 -7.67012951 -2.07401429 0 0 Z " fill="#344B70" transform="translate(557,659)"/>
<path d="M0 0 C0.91652344 0.01160156 1.83304688 0.02320313 2.77734375 0.03515625 C3.69644531 0.04417969 4.61554688 0.05320312 5.5625 0.0625 C6.27277344 0.07410156 6.98304688 0.08570313 7.71484375 0.09765625 C3.60561444 2.46119864 -0.47898332 2.81947279 -5.1171875 3.4375 C-8.39123937 4.00910654 -8.39123937 4.00910654 -11.66796875 5.55859375 C-15.57388512 7.22050633 -19.19127541 8.06144769 -23.34765625 8.78515625 C-24.36956055 8.97948242 -24.36956055 8.97948242 -25.41210938 9.17773438 C-29.41701493 9.90484979 -33.21830577 10.2308916 -37.28515625 10.09765625 C-36.95515625 9.43765625 -36.62515625 8.77765625 -36.28515625 8.09765625 C-33.95799625 7.72364839 -31.62397763 7.39000892 -29.28515625 7.09765625 C-28.95515625 6.76765625 -28.62515625 6.43765625 -28.28515625 6.09765625 C-26.76587587 6.02585661 -25.24348143 6.01373618 -23.72265625 6.03515625 C-22.89636719 6.04417969 -22.07007812 6.05320312 -21.21875 6.0625 C-20.58066406 6.07410156 -19.94257812 6.08570313 -19.28515625 6.09765625 C-19.28515625 5.43765625 -19.28515625 4.77765625 -19.28515625 4.09765625 C-16.97515625 4.09765625 -14.66515625 4.09765625 -12.28515625 4.09765625 C-12.28515625 3.43765625 -12.28515625 2.77765625 -12.28515625 2.09765625 C-11.32802734 2.00677734 -11.32802734 2.00677734 -10.3515625 1.9140625 C-9.52527344 1.83027344 -8.69898437 1.74648438 -7.84765625 1.66015625 C-7.02394531 1.57894531 -6.20023438 1.49773438 -5.3515625 1.4140625 C-2.82680995 1.02747468 -2.62280976 0.11208589 0 0 Z " fill="#254471" transform="translate(136.28515625,750.90234375)"/>
<path d="M0 0 C0.66 0.33 1.32 0.66 2 1 C-0.26506466 3.54819774 -2.36023455 4.76996322 -5.5 6.0625 C-8.28562344 7.21853373 -10.46385086 8.30923391 -13 10 C-15.6875 10.125 -15.6875 10.125 -18 10 C-18 10.66 -18 11.32 -18 12 C-21.44833324 14.05257931 -23.31661591 15.0632763 -27.375 14.6875 C-28.24125 14.460625 -29.1075 14.23375 -30 14 C-27.54643735 12.36429157 -25.52231785 11.29900458 -22.83203125 10.1953125 C-22.02056641 9.85886719 -21.20910156 9.52242187 -20.37304688 9.17578125 C-19.10557617 8.65564453 -19.10557617 8.65564453 -17.8125 8.125 C-12.95106218 6.12881242 -8.16674631 4.12549597 -3.51171875 1.6796875 C-2.35285156 1.12539063 -1.19398438 0.57109375 0 0 Z " fill="#344D73" transform="translate(353,853)"/>
<path d="M0 0 C-2.96643551 1.64421368 -5.60283269 2.42452583 -8.9375 3 C-11.54791455 3.45188011 -13.80951664 3.91864773 -16.25 4.9609375 C-20.10438367 6.41728133 -24.00382401 6.98294956 -28.0625 7.625 C-28.86494141 7.7590625 -29.66738281 7.893125 -30.49414062 8.03125 C-34.09216062 8.61648811 -37.33162293 9 -41 9 C-41 8.34 -41 7.68 -41 7 C-39.78441406 6.79503906 -38.56882812 6.59007812 -37.31640625 6.37890625 C-35.73173486 6.10698039 -34.14710137 5.83483357 -32.5625 5.5625 C-31.76005859 5.42779297 -30.95761719 5.29308594 -30.13085938 5.15429688 C-26.24528697 4.79732776 -26.24528697 4.79732776 -23 3 C-20.66666667 2.66666667 -18.33333333 2.33333333 -16 2 C-15.67 1.67 -15.34 1.34 -15 1 C-13.42324319 0.76348648 -11.83751748 0.58544911 -10.25 0.4375 C-8.95835937 0.31181641 -8.95835937 0.31181641 -7.640625 0.18359375 C-5.08353681 0.00580803 -2.56226184 -0.03225869 0 0 Z " fill="#3C506B" transform="translate(459,680)"/>
<path d="M0 0 C-18.46733668 6.34045226 -18.46733668 6.34045226 -28 6 C-28 6.66 -28 7.32 -28 8 C-34.435 8.495 -34.435 8.495 -41 9 C-40.67 8.34 -40.34 7.68 -40 7 C-37.36 7 -34.72 7 -32 7 C-32 6.34 -32 5.68 -32 5 C-30.98421875 4.81824219 -29.9684375 4.63648438 -28.921875 4.44921875 C-27.53107297 4.19628401 -26.14046096 3.94230307 -24.75 3.6875 C-24.02651367 3.55504883 -23.30302734 3.42259766 -22.55761719 3.28613281 C-17.11133102 2.26510431 -11.78442143 0.97209773 -6.453125 -0.546875 C-3.90227419 -1.01805126 -2.42703793 -0.83925611 0 0 Z " fill="#D0AB4C" transform="translate(754,615)"/>
<path d="M0 0 C-6.13438537 5.44781182 -16.10406594 5.36725275 -24 5 C-24 5.66 -24 6.32 -24 7 C-27.3 7 -30.6 7 -34 7 C-30.92489474 5.46244737 -28.69092205 4.54893385 -25.4453125 3.74609375 C-24.15173828 3.42415039 -24.15173828 3.42415039 -22.83203125 3.09570312 C-21.93871094 2.87849609 -21.04539063 2.66128906 -20.125 2.4375 C-19.23941406 2.21642578 -18.35382813 1.99535156 -17.44140625 1.76757812 C-4.2751115 -1.47984629 -4.2751115 -1.47984629 0 0 Z " fill="#D0AA4B" transform="translate(184,744)"/>
<path d="M0 0 C1.23556641 0.01740234 1.23556641 0.01740234 2.49609375 0.03515625 C3.32238281 0.04417969 4.14867187 0.05320312 5 0.0625 C5.63808594 0.07410156 6.27617187 0.08570313 6.93359375 0.09765625 C6.93359375 0.42765625 6.93359375 0.75765625 6.93359375 1.09765625 C5.89017822 1.30914307 5.89017822 1.30914307 4.82568359 1.52490234 C1.65252608 2.17031719 -1.51943595 2.82143282 -4.69140625 3.47265625 C-5.78582031 3.694375 -6.88023437 3.91609375 -8.0078125 4.14453125 C-9.07128906 4.36367188 -10.13476562 4.5828125 -11.23046875 4.80859375 C-12.2045166 5.00759277 -13.17856445 5.2065918 -14.18212891 5.41162109 C-17.21710725 6.13350099 -20.11137392 7.1025064 -23.06640625 8.09765625 C-25.06009656 8.46685816 -27.05919702 8.81091207 -29.06640625 9.09765625 C-29.06640625 8.10765625 -29.06640625 7.11765625 -29.06640625 6.09765625 C-23.61179456 4.71235804 -18.69922224 3.85796195 -13.06640625 4.09765625 C-13.06640625 3.43765625 -13.06640625 2.77765625 -13.06640625 2.09765625 C-12.35613281 2.03707031 -11.64585937 1.97648438 -10.9140625 1.9140625 C-9.53541016 1.78837891 -9.53541016 1.78837891 -8.12890625 1.66015625 C-7.21238281 1.57894531 -6.29585938 1.49773438 -5.3515625 1.4140625 C-2.82741659 1.06456537 -2.48526307 0.117451 0 0 Z " fill="#1A3E7B" transform="translate(367.06640625,698.90234375)"/>
<path d="M0 0 C1.98 0 3.96 0 6 0 C3.16566697 2.83433303 -0.31114844 4.05581357 -3.9375 5.625 C-4.66646484 5.94984375 -5.39542969 6.2746875 -6.14648438 6.609375 C-11.62583705 9 -11.62583705 9 -15 9 C-15 9.66 -15 10.32 -15 11 C-16.32 11 -17.64 11 -19 11 C-19 11.66 -19 12.32 -19 13 C-21.97 13.66 -24.94 14.32 -28 15 C-27.34 14.67 -26.68 14.34 -26 14 C-26 13.34 -26 12.68 -26 12 C-24.02 12 -22.04 12 -20 12 C-20 11.34 -20 10.68 -20 10 C-19.01 10 -18.02 10 -17 10 C-17 9.34 -17 8.68 -17 8 C-15.68 8 -14.36 8 -13 8 C-13 7.34 -13 6.68 -13 6 C-11.35 6 -9.7 6 -8 6 C-8 5.34 -8 4.68 -8 4 C-5.09399739 2.74335022 -3.20395416 2 0 2 C0 1.34 0 0.68 0 0 Z " fill="#CFA94E" transform="translate(537,771)"/>
<path d="M0 0 C-1.68631992 0.62817704 -3.37412451 1.25236893 -5.0625 1.875 C-6.00222656 2.22304688 -6.94195313 2.57109375 -7.91015625 2.9296875 C-14.189328 5.10477354 -19.83617999 6.33509757 -26.4375 6.625 C-27.16904297 6.66367187 -27.90058594 6.70234375 -28.65429688 6.7421875 C-30.43583532 6.83533984 -32.21788122 6.91870286 -34 7 C-30.86326552 4.90884368 -29.39839455 4.61344626 -25.75 4.125 C-19.39340227 3.17151034 -13.40275637 1.52081255 -7.25 -0.29296875 C-4.23963986 -0.94786681 -2.81226555 -1.10381423 0 0 Z " fill="#B59A55" transform="translate(647,639)"/>
<path d="M0 0 C-0.3125 1.875 -0.3125 1.875 -1 4 C-1.99 4.66 -2.98 5.32 -4 6 C-4 5.34 -4 4.68 -4 4 C-8.95 5.485 -8.95 5.485 -14 7 C-14 7.66 -14 8.32 -14 9 C-17.90028225 11.60018816 -21.47434569 11.15085514 -26 11 C-19.43662542 6.62441695 -8.03313085 0 0 0 Z " fill="#344D72" transform="translate(608,744)"/>
<path d="M0 0 C1.32 0.33 2.64 0.66 4 1 C3.01 1 2.02 1 1 1 C1 1.66 1 2.32 1 3 C0.21238281 3.29132812 -0.57523438 3.58265625 -1.38671875 3.8828125 C-8.55313332 6.57975905 -15.43094062 9.51966189 -22.3203125 12.86328125 C-25 14 -25 14 -28 14 C-28 13.34 -28 12.68 -28 12 C-26.68 12 -25.36 12 -24 12 C-24 11.34 -24 10.68 -24 10 C-22.35 10 -20.7 10 -19 10 C-19 9.34 -19 8.68 -19 8 C-17.68 8 -16.36 8 -15 8 C-15 7.34 -15 6.68 -15 6 C-13.35 6 -11.7 6 -10 6 C-10 5.34 -10 4.68 -10 4 C-8.35 4 -6.7 4 -5 4 C-5 3.34 -5 2.68 -5 2 C-3.35 2 -1.7 2 0 2 C0 1.34 0 0.68 0 0 Z " fill="#D6AD4C" transform="translate(840,641)"/>
<path d="M0 0 C0 0.66 0 1.32 0 2 C-1.794375 2.2784375 -1.794375 2.2784375 -3.625 2.5625 C-8.1144517 3.64314678 -10.01990733 5.78101841 -12.67578125 9.44140625 C-14 11 -14 11 -17 12 C-18.20882096 14.00016466 -18.20882096 14.00016466 -19 16 C-19.33 15.34 -19.66 14.68 -20 14 C-19.67 13.01 -19.34 12.02 -19 11 C-18.34 11 -17.68 11 -17 11 C-16.773125 10.2575 -16.54625 9.515 -16.3125 8.75 C-14.22882372 4.38420209 -11.35169425 2.55171194 -6.9375 0.75 C-4 0 -4 0 0 0 Z " fill="#2550A1" transform="translate(446,273)"/>
<path d="M0 0 C-2.64 0.33 -5.28 0.66 -8 1 C-8 1.66 -8 2.32 -8 3 C-9.14339844 3.20496094 -10.28679687 3.40992188 -11.46484375 3.62109375 C-12.95576676 3.8930231 -14.44665016 4.16516974 -15.9375 4.4375 C-16.69224609 4.57220703 -17.44699219 4.70691406 -18.22460938 4.84570312 C-21.91953174 5.24272034 -21.91953174 5.24272034 -25 7 C-27.01964199 7.07244053 -29.04167124 7.08377188 -31.0625 7.0625 C-32.16722656 7.05347656 -33.27195312 7.04445313 -34.41015625 7.03515625 C-35.69212891 7.01775391 -35.69212891 7.01775391 -37 7 C-37 6.67 -37 6.34 -37 6 C-36.08504761 5.83395264 -36.08504761 5.83395264 -35.15161133 5.66455078 C-32.37089239 5.15675584 -29.59171554 4.64095706 -26.8125 4.125 C-25.85279297 3.95097656 -24.89308594 3.77695312 -23.90429688 3.59765625 C-22.50727539 3.33662109 -22.50727539 3.33662109 -21.08203125 3.0703125 C-20.22843018 2.91320801 -19.3748291 2.75610352 -18.49536133 2.59423828 C-15.86252343 1.96726172 -13.50448645 1.01643862 -11 0 C-3.83883249 -1.3819797 -3.83883249 -1.3819797 0 0 Z " fill="#D0AB4E" transform="translate(459,682)"/>
<path d="M0 0 C1.51400391 0.01740234 1.51400391 0.01740234 3.05859375 0.03515625 C4.07050781 0.04417969 5.08242188 0.05320312 6.125 0.0625 C7.29869141 0.07990234 7.29869141 0.07990234 8.49609375 0.09765625 C5.09258037 2.12985113 2.17280105 2.46656664 -1.75390625 2.72265625 C-2.8315625 2.79742188 -3.90921875 2.8721875 -5.01953125 2.94921875 C-5.839375 2.99820313 -6.65921875 3.0471875 -7.50390625 3.09765625 C-7.50390625 3.75765625 -7.50390625 4.41765625 -7.50390625 5.09765625 C-9.32921875 5.31421875 -9.32921875 5.31421875 -11.19140625 5.53515625 C-14.33061002 5.92546578 -17.41141965 6.42117481 -20.50390625 7.09765625 C-20.50390625 6.10765625 -20.50390625 5.11765625 -20.50390625 4.09765625 C-19.28832031 3.89269531 -18.07273437 3.68773437 -16.8203125 3.4765625 C-15.23564111 3.20463664 -13.65100762 2.93248982 -12.06640625 2.66015625 C-11.26396484 2.52544922 -10.46152344 2.39074219 -9.63476562 2.25195312 C-6.23559317 1.66391063 -3.20393805 0.12495858 0 0 Z " fill="#214175" transform="translate(729.50390625,616.90234375)"/>
<path d="M0 0 C0 0.66 0 1.32 0 2 C-4.24727514 2.86811162 -8.49815784 3.71706514 -12.75 4.5625 C-13.9565625 4.80935547 -15.163125 5.05621094 -16.40625 5.31054688 C-17.56640625 5.53935547 -18.7265625 5.76816406 -19.921875 6.00390625 C-20.99018555 6.21861572 -22.05849609 6.4333252 -23.15917969 6.65454102 C-25.84247453 6.98084406 -27.47547851 6.87612613 -30 6 C-27.36 5.67 -24.72 5.34 -22 5 C-22 4.34 -22 3.68 -22 3 C-18.7 3 -15.4 3 -12 3 C-12 2.34 -12 1.68 -12 1 C-7.95858806 0.36605303 -4.0934693 -0.12404452 0 0 Z " fill="#304970" transform="translate(864,588)"/>
<path d="M0 0 C-5.14255118 2.46413911 -9.33827928 3.41430475 -15 4 C-15.33 4.33 -15.66 4.66 -16 5 C-18.01964199 5.07244053 -20.04167124 5.08377188 -22.0625 5.0625 C-23.16722656 5.05347656 -24.27195312 5.04445313 -25.41015625 5.03515625 C-26.69212891 5.01775391 -26.69212891 5.01775391 -28 5 C-28 4.67 -28 4.34 -28 4 C-24.08638031 3.13144793 -20.16872948 2.28267221 -16.25 1.4375 C-15.13882812 1.19064453 -14.02765625 0.94378906 -12.8828125 0.68945312 C-11.81289063 0.46064453 -10.74296875 0.23183594 -9.640625 -0.00390625 C-8.65610352 -0.21861572 -7.67158203 -0.4333252 -6.65722656 -0.65454102 C-4.05664939 -0.99263516 -2.45708642 -0.83856995 0 0 Z " fill="#C6A550" transform="translate(388,698)"/>
<path d="M0 0 C-3.03393367 1.66824269 -5.8686727 2.55113857 -9.24609375 3.2890625 C-10.24833984 3.50820313 -11.25058594 3.72734375 -12.28320312 3.953125 C-13.32412109 4.17484375 -14.36503906 4.3965625 -15.4375 4.625 C-16.99307617 4.96917969 -16.99307617 4.96917969 -18.58007812 5.3203125 C-23.14628003 6.30569711 -27.30992998 7.13864361 -32 7 C-28.6502342 3.6502342 -25.43243341 3.52072374 -20.92578125 3.2109375 C-18.99401197 3.2026491 -18.99401197 3.2026491 -18 2 C-15.92526252 1.59853244 -13.83942897 1.25372524 -11.75 0.9375 C-10.61046875 0.76089844 -9.4709375 0.58429687 -8.296875 0.40234375 C-5.48109738 0.05871212 -2.83026817 -0.07980079 0 0 Z " fill="#30496A" transform="translate(312,713)"/>
<path d="M0 0 C0 0.33 0 0.66 0 1 C-3.31026371 1.821793 -6.62355671 2.63068483 -9.9375 3.4375 C-10.86369141 3.66759766 -11.78988281 3.89769531 -12.74414062 4.13476562 C-18.50286776 5.52898377 -24.0972376 6.47329197 -30 7 C-27.31005859 4.03662109 -27.31005859 4.03662109 -24.51953125 3.70703125 C-23.62621094 3.74183594 -22.73289062 3.77664063 -21.8125 3.8125 C-20.91144531 3.83957031 -20.01039063 3.86664062 -19.08203125 3.89453125 C-18.05142578 3.94673828 -18.05142578 3.94673828 -17 4 C-17 3.34 -17 2.68 -17 2 C-11.19233704 0.4943096 -6.0018137 -0.21824777 0 0 Z " fill="#29456E" transform="translate(834,595)"/>
<path d="M0 0 C-4.47090212 2.43258416 -9.04626044 3.20736724 -14 4.1875 C-14.90234375 4.37763672 -15.8046875 4.56777344 -16.734375 4.76367188 C-18.04148438 5.02567383 -18.04148438 5.02567383 -19.375 5.29296875 C-20.16648438 5.4530542 -20.95796875 5.61313965 -21.7734375 5.77807617 C-24.12257254 6.01221693 -25.7645068 5.7110323 -28 5 C-27 4 -27 4 -23.4375 3.9375 C-22.303125 3.958125 -21.16875 3.97875 -20 4 C-20 3.34 -20 2.68 -20 2 C-13.23514355 0.3879491 -6.95041086 -0.26618595 0 0 Z " fill="#324B6E" transform="translate(243,729)"/>
<path d="M0 0 C-5.71735105 2.45029331 -9.79029227 3.33266291 -16 3 C-16 3.66 -16 4.32 -16 5 C-19.3 5 -22.6 5 -26 5 C-22.5590697 3.27953485 -19.81686093 2.3346316 -16.125 1.4375 C-15.11695313 1.18871094 -14.10890625 0.93992187 -13.0703125 0.68359375 C-3.91431521 -1.35495526 -3.91431521 -1.35495526 0 0 Z " fill="#BDA053" transform="translate(60,772)"/>
<path d="M0 0 C-4.96993194 2.43425238 -8.34605369 3.34615998 -14 3 C-14 3.66 -14 4.32 -14 5 C-17.63 5 -21.26 5 -25 5 C-25 4.67 -25 4.34 -25 4 C-21.58700991 3.1306619 -18.16916192 2.28220776 -14.75 1.4375 C-13.78191406 1.19064453 -12.81382812 0.94378906 -11.81640625 0.68945312 C-10.88183594 0.46064453 -9.94726562 0.23183594 -8.984375 -0.00390625 C-7.69611816 -0.32597046 -7.69611816 -0.32597046 -6.38183594 -0.65454102 C-3.90763516 -1.0133965 -2.35189657 -0.78317203 0 0 Z " fill="#CAA850" transform="translate(838,596)"/>
<path d="M0 0 C3.63 0 7.26 0 11 0 C11 0.33 11 0.66 11 1 C7.10423555 1.8128305 3.20837643 2.62520641 -0.6875 3.4375 C-2.34168945 3.78264648 -2.34168945 3.78264648 -4.02929688 4.13476562 C-5.09599609 4.35712891 -6.16269531 4.57949219 -7.26171875 4.80859375 C-8.73064575 5.11494751 -8.73064575 5.11494751 -10.22924805 5.42749023 C-12.81747431 5.96228542 -15.40779619 6.48486931 -18 7 C-12.39884772 2.26056345 -7.05353749 1.75677457 0 2 C0 1.34 0 0.68 0 0 Z " fill="#344C6D" transform="translate(887,581)"/>
<path d="M0 0 C1.23556641 0.01740234 1.23556641 0.01740234 2.49609375 0.03515625 C3.32238281 0.04417969 4.14867187 0.05320312 5 0.0625 C5.63808594 0.07410156 6.27617187 0.08570313 6.93359375 0.09765625 C3.55373796 2.35089344 0.52933966 2.94231516 -3.37890625 3.66015625 C-4.67441406 3.90894531 -5.96992188 4.15773438 -7.3046875 4.4140625 C-10.55455573 5.00464084 -13.8062967 5.56694074 -17.06640625 6.09765625 C-17.06640625 5.43765625 -17.06640625 4.77765625 -17.06640625 4.09765625 C-15.41640625 4.09765625 -13.76640625 4.09765625 -12.06640625 4.09765625 C-12.06640625 3.43765625 -12.06640625 2.77765625 -12.06640625 2.09765625 C-11.10927734 2.00677734 -11.10927734 2.00677734 -10.1328125 1.9140625 C-8.89337891 1.78837891 -8.89337891 1.78837891 -7.62890625 1.66015625 C-6.80519531 1.57894531 -5.98148437 1.49773438 -5.1328125 1.4140625 C-2.72569953 1.04548755 -2.43674783 0.11515822 0 0 Z " fill="#294470" transform="translate(411.06640625,688.90234375)"/>
<path d="M0 0 C-17 9 -17 9 -23 9 C-23 8.34 -23 7.68 -23 7 C-21.68 7 -20.36 7 -19 7 C-19 6.34 -19 5.68 -19 5 C-18.41992188 4.81824219 -17.83984375 4.63648438 -17.2421875 4.44921875 C-13.533886 3.25595342 -10.1442083 2.07618552 -6.6875 0.25 C-3.67809479 -1.14972335 -3.01958327 -0.95287489 0 0 Z " fill="#DAB04A" transform="translate(603,746)"/>
<path d="M0 0 C-7.62553851 3.70088212 -14.56559869 4.73559871 -23 5 C-19.50412041 2.66941361 -16.07958685 1.80868 -12.0625 0.8125 C-11.34642578 0.62236328 -10.63035156 0.43222656 -9.89257812 0.23632812 C-6.19660167 -0.6919477 -3.63448981 -1.1215946 0 0 Z " fill="#C2A353" transform="translate(577,655)"/>
<path d="M0 0 C-0.99 0.33 -1.98 0.66 -3 1 C-3 1.66 -3 2.32 -3 3 C-7.77357872 5.71391278 -11.34388537 7.56561146 -17 7 C-16.34 6.67 -15.68 6.34 -15 6 C-15 5.34 -15 4.68 -15 4 C-12.87875034 3.13656176 -10.75286928 2.28449352 -8.625 1.4375 C-6.84996094 0.72400391 -6.84996094 0.72400391 -5.0390625 -0.00390625 C-2 -1 -2 -1 0 0 Z " fill="#374E71" transform="translate(879,628)"/>
<path d="M0 0 C-5.36439644 2.68219822 -9.01006953 3.3152595 -15 3 C-15 3.66 -15 4.32 -15 5 C-17.97 5 -20.94 5 -24 5 C-24 4.67 -24 4.34 -24 4 C-22.35 4 -20.7 4 -19 4 C-19 3.34 -19 2.68 -19 2 C-18.41992188 1.95101562 -17.83984375 1.90203125 -17.2421875 1.8515625 C-13.51229652 1.49457623 -10.25456519 1.0864561 -6.6875 -0.125 C-3.88530956 -1.03734107 -2.70478773 -1.04030297 0 0 Z " fill="#CDAA4C" transform="translate(883,586)"/>
<path d="M0 0 C-0.56847656 0.10957031 -1.13695312 0.21914063 -1.72265625 0.33203125 C-5.60366091 1.12896543 -8.9342785 1.97002177 -12.5625 3.625 C-16.7398004 5.29592016 -19.54467671 5.2344907 -24 5 C-20.94299387 1.94299387 -17.26564387 1.7099635 -13.125 0.8125 C-12.30902344 0.62236328 -11.49304688 0.43222656 -10.65234375 0.23632812 C-9.46705078 -0.02567383 -9.46705078 -0.02567383 -8.2578125 -0.29296875 C-7.5373877 -0.4530542 -6.81696289 -0.61313965 -6.07470703 -0.77807617 C-3.79475966 -1.02195381 -2.17416288 -0.68237244 0 0 Z " fill="#AC9758" transform="translate(218,736)"/>
<path d="M0 0 C-3.03949302 0.67684298 -6.08189165 1.33961872 -9.125 2 C-9.9809375 2.19078125 -10.836875 2.3815625 -11.71875 2.578125 C-16.22732794 3.54920333 -20.35645604 4.24359575 -25 4 C-24.67 3.34 -24.34 2.68 -24 2 C-21.67284 1.62599214 -19.33882138 1.29235267 -17 1 C-16.67 0.67 -16.34 0.34 -16 0 C-14.06914715 -0.26289978 -12.12922521 -0.46064599 -10.1875 -0.625 C-9.12917969 -0.72039063 -8.07085937 -0.81578125 -6.98046875 -0.9140625 C-4.3190465 -0.99080076 -2.52226799 -0.70279913 0 0 Z " fill="#3D506B" transform="translate(124,757)"/>
<path d="M0 0 C1.37478516 0.01740234 1.37478516 0.01740234 2.77734375 0.03515625 C3.69644531 0.04417969 4.61554688 0.05320312 5.5625 0.0625 C6.27277344 0.07410156 6.98304688 0.08570313 7.71484375 0.09765625 C7.71484375 0.42765625 7.71484375 0.75765625 7.71484375 1.09765625 C-5.15515625 3.57265625 -5.15515625 3.57265625 -18.28515625 6.09765625 C-17.28515625 4.09765625 -17.28515625 4.09765625 -14.72265625 3.03515625 C-12.05001687 2.3062546 -9.69923804 1.84900739 -6.97265625 1.53515625 C-3.63757924 1.13946915 -2.97438574 0.1271105 0 0 Z " fill="#244272" transform="translate(181.28515625,740.90234375)"/>
<path d="M0 0 C-7.15015255 3.85008214 -14.00608844 4.50846498 -22 5 C-22.33 4.34 -22.66 3.68 -23 3 C-20.94921875 2.77213542 -18.8984375 2.54427083 -16.84765625 2.31640625 C-14.98859771 2.18113386 -14.98859771 2.18113386 -14 1 C-9.37776522 0.22644418 -4.68490867 -0.15112609 0 0 Z " fill="#2E4972" transform="translate(334,708)"/>
<path d="M0 0 C1.51400391 0.01740234 1.51400391 0.01740234 3.05859375 0.03515625 C4.07050781 0.04417969 5.08242188 0.05320312 6.125 0.0625 C7.29869141 0.07990234 7.29869141 0.07990234 8.49609375 0.09765625 C4.99034137 2.10843691 1.4967859 2.89046623 -2.44140625 3.72265625 C-4.24931641 4.11324219 -4.24931641 4.11324219 -6.09375 4.51171875 C-8.99798174 5.01072764 -11.5711086 5.22008803 -14.50390625 5.09765625 C-13.51390625 4.76765625 -12.52390625 4.43765625 -11.50390625 4.09765625 C-11.50390625 3.43765625 -11.50390625 2.77765625 -11.50390625 2.09765625 C-9.453125 1.86979167 -7.40234375 1.64192708 -5.3515625 1.4140625 C-2.80701946 0.97831623 -2.79909069 0.1091689 0 0 Z " fill="#274572" transform="translate(499.50390625,668.90234375)"/>
<path d="M0 0 C3.63 0 7.26 0 11 0 C11 0.33 11 0.66 11 1 C8.12666819 1.67466072 5.25168518 2.3399234 2.375 3 C1.56675781 3.19078125 0.75851562 3.3815625 -0.07421875 3.578125 C-4.47204169 4.57925543 -8.45561039 5.2353082 -13 5 C-11.68 4.67 -10.36 4.34 -9 4 C-9 3.34 -9 2.68 -9 2 C-6.03 2 -3.06 2 0 2 C0 1.34 0 0.68 0 0 Z " fill="#1C4074" transform="translate(647,635)"/>
<path d="M0 0 C1.98 0 3.96 0 6 0 C3.24795984 1.83469344 0.62357183 3.18644307 -2.375 4.5625 C-3.77878906 5.21412109 -3.77878906 5.21412109 -5.2109375 5.87890625 C-7.82512386 6.92970665 -10.22623745 7.55115479 -13 8 C-13 6 -13 6 -11 4 C-7.875 3.875 -7.875 3.875 -5 4 C-5 3.34 -5 2.68 -5 2 C-3.35 2 -1.7 2 0 2 C0 1.34 0 0.68 0 0 Z " fill="#DFB347" transform="translate(626,733)"/>
<path d="M0 0 C1.23556641 0.01740234 1.23556641 0.01740234 2.49609375 0.03515625 C3.32238281 0.04417969 4.14867187 0.05320313 5 0.0625 C5.63808594 0.07410156 6.27617187 0.08570313 6.93359375 0.09765625 C6.60359375 0.75765625 6.27359375 1.41765625 5.93359375 2.09765625 C3.14986514 2.76918271 0.43925341 3.31507703 -2.37890625 3.78515625 C-3.15169922 3.92759766 -3.92449219 4.07003906 -4.72070312 4.21679688 C-8.54811954 4.87828501 -11.29236913 5.24480727 -15.06640625 4.09765625 C-14.21175781 3.89269531 -13.35710937 3.68773437 -12.4765625 3.4765625 C-11.37183594 3.20714844 -10.26710938 2.93773437 -9.12890625 2.66015625 C-7.47568359 2.25990234 -7.47568359 2.25990234 -5.7890625 1.8515625 C-3.24185994 1.14623955 -2.49384941 0.11785678 0 0 Z " fill="#164495" transform="translate(429.06640625,226.90234375)"/>
<path d="M0 0 C-0.85464844 0.42152344 -1.70929688 0.84304688 -2.58984375 1.27734375 C-3.69457031 1.82519531 -4.79929687 2.37304688 -5.9375 2.9375 C-7.59072266 3.75541016 -7.59072266 3.75541016 -9.27734375 4.58984375 C-11.84794414 5.74704978 -11.84794414 5.74704978 -13 7 C-14.99958364 7.04080783 -17.00045254 7.04254356 -19 7 C-17.30884597 3.61769195 -13.45023891 3.05691576 -10.0625 1.8125 C-9.32064453 1.52697266 -8.57878906 1.24144531 -7.81445312 0.94726562 C-2.25133117 -1.12566558 -2.25133117 -1.12566558 0 0 Z " fill="#4B5965" transform="translate(266,893)"/>
<path d="M0 0 C-2.89444095 0.6732656 -5.79030013 1.33880404 -8.6875 2 C-9.50412109 2.19078125 -10.32074219 2.3815625 -11.16210938 2.578125 C-15.17239326 3.48733916 -18.85717252 4.27000098 -23 4 C-21.67661368 3.31379969 -20.34050052 2.65213539 -19 2 C-18.29875 1.649375 -17.5975 1.29875 -16.875 0.9375 C-11.32128102 -0.87349532 -5.65654981 -1.53862335 0 0 Z " fill="#3F5066" transform="translate(707,625)"/>
<path d="M0 0 C0 0.66 0 1.32 0 2 C-2.86973884 3.61635488 -5.04464203 4.2733418 -8.328125 4.4140625 C-9.12734375 4.45273437 -9.9265625 4.49140625 -10.75 4.53125 C-11.9875 4.57765625 -11.9875 4.57765625 -13.25 4.625 C-14.51070313 4.68300781 -14.51070313 4.68300781 -15.796875 4.7421875 C-17.86423382 4.83615836 -19.93208627 4.91915564 -22 5 C-22 4.67 -22 4.34 -22 4 C-20.89140625 3.79503906 -19.7828125 3.59007812 -18.640625 3.37890625 C-17.17707133 3.10683538 -15.71353033 2.83469638 -14.25 2.5625 C-13.52039063 2.42779297 -12.79078125 2.29308594 -12.0390625 2.15429688 C-7.94028197 1.39677502 -7.94028197 1.39677502 -3.88183594 0.45288086 C-2 0 -2 0 0 0 Z " fill="#2953A0" transform="translate(286,537)"/>
<path d="M0 0 C0.66 0.33 1.32 0.66 2 1 C-0.94202347 4.96041621 -4.21485187 7.8591324 -8 11 C-9.00573778 12.32901064 -10.00795408 13.66073801 -11 15 C-11.66 15 -12.32 15 -13 15 C-11.38989473 10.92623969 -8.46177729 8.23492931 -5.375 5.25 C-4.859375 4.74339844 -4.34375 4.23679688 -3.8125 3.71484375 C-2.54616661 2.47196098 -1.2736856 1.23534724 0 0 Z " fill="#D6E5F8" transform="translate(396,241)"/>
<path d="M0 0 C-3.02093215 3.02093215 -6.56372072 2.46676834 -10.625 2.625 C-11.42679688 2.66367187 -12.22859375 2.70234375 -13.0546875 2.7421875 C-15.03607556 2.83653931 -17.01800645 2.91936215 -19 3 C-19 2.67 -19 2.34 -19 2 C-16.58525383 1.46839543 -14.16891893 0.94945234 -11.75 0.4375 C-11.06808594 0.28603516 -10.38617188 0.13457031 -9.68359375 -0.02148438 C-6.18230962 -0.75233495 -3.39701827 -1.32203546 0 0 Z " fill="#AE9657" transform="translate(19,781)"/>
<path d="M0 0 C-6.25172386 2.86964374 -11.09647445 4.51137226 -18 4 C-15.48115349 1.48115349 -13.56355758 1.1742412 -10.125 0.3125 C-9.07570313 0.04050781 -8.02640625 -0.23148438 -6.9453125 -0.51171875 C-4.14833162 -0.97540921 -2.627808 -0.94575698 0 0 Z " fill="#AF9756" transform="translate(97,763)"/>
<path d="M0 0 C-0.639375 0.309375 -1.27875 0.61875 -1.9375 0.9375 C-3.93610821 1.8345163 -3.93610821 1.8345163 -5 3 C-7.52596259 3.23653523 -10.03107207 3.42173692 -12.5625 3.5625 C-13.27341797 3.60568359 -13.98433594 3.64886719 -14.71679688 3.69335938 C-16.47761912 3.79971777 -18.2387832 3.90038846 -20 4 C-13.97022631 -0.01984912 -7.07554765 -0.25729264 0 0 Z " fill="#BA9F51" transform="translate(598,650)"/>
<path d="M0 0 C-1.98 0.33 -3.96 0.66 -6 1 C-6 1.66 -6 2.32 -6 3 C-12.435 3.495 -12.435 3.495 -19 4 C-18.67 3.34 -18.34 2.68 -18 2 C-15.36 2 -12.72 2 -10 2 C-10 1.34 -10 0.68 -10 0 C-6.33694766 -0.74926071 -3.57644848 -1.2380014 0 0 Z " fill="#BEA052" transform="translate(732,620)"/>
<path d="M0 0 C-0.58007812 0.18175781 -1.16015625 0.36351562 -1.7578125 0.55078125 C-6.39342866 2.04243991 -10.69376942 3.68933969 -15 6 C-15.99 6.495 -15.99 6.495 -17 7 C-17.66 6.34 -18.32 5.68 -19 5 C-17.25197854 4.18325204 -15.50149811 3.37176549 -13.75 2.5625 C-12.77546875 2.11003906 -11.8009375 1.65757812 -10.796875 1.19140625 C-6.70394494 -0.55209049 -4.30908623 -1.38506343 0 0 Z " fill="#BACEED" transform="translate(422,232)"/>
<path d="M0 0 C-6.48549783 3.63187878 -12.73157242 4.29667051 -20 4 C-16.76393248 2.21860706 -13.57342755 1.22819081 -10 0.3125 C-8.96875 0.04050781 -7.9375 -0.23148438 -6.875 -0.51171875 C-4.11053448 -0.98122716 -2.60249272 -0.93214283 0 0 Z " fill="#D0AB4F" transform="translate(524,667)"/>
<path d="M0 0 C0.66 0 1.32 0 2 0 C2.20496094 0.85464844 2.40992188 1.70929688 2.62109375 2.58984375 C2.89050781 3.69457031 3.15992188 4.79929687 3.4375 5.9375 C3.70433594 7.03964844 3.97117187 8.14179688 4.24609375 9.27734375 C4.72995725 11.89421254 4.72995725 11.89421254 6 13 C6.04080783 14.99958364 6.04254356 17.00045254 6 19 C3.88565935 15.82848903 2.98044063 13.13567139 1.875 9.5 C1.52179687 8.3553125 1.16859375 7.210625 0.8046875 6.03125 C0 3 0 3 0 0 Z " fill="#214C9C" transform="translate(738,501)"/>
<path d="M0 0 C0.66 0.33 1.32 0.66 2 1 C-0.08459518 4.12689277 -0.5796134 4.82986774 -4 6 C-6.69137604 6.15983268 -9.29899235 6.09003359 -12 6 C-9.48617788 4.32411859 -7.17052712 3.05969689 -4.4375 1.8125 C-3.65246094 1.44769531 -2.86742187 1.08289063 -2.05859375 0.70703125 C-1.37925781 0.47371094 -0.69992187 0.24039063 0 0 Z " fill="#344D75" transform="translate(497,791)"/>
<path d="M0 0 C-2.7596861 1.83979073 -4.29741882 2.48323221 -7.4375 3.1875 C-8.19933594 3.36667969 -8.96117187 3.54585937 -9.74609375 3.73046875 C-12.12958496 4.0154963 -13.73104204 3.72875415 -16 3 C-10.62669111 -0.39366878 -6.13053511 -0.32712342 0 0 Z " fill="#354D6E" transform="translate(162,747)"/>
<path d="M0 0 C1.76462683 3.08809695 2 4.23312136 2 8 C1.34 8 0.68 8 0 8 C-0.33 11.63 -0.66 15.26 -1 19 C-1.33 19 -1.66 19 -2 19 C-2.21432579 12.35590042 -1.51233701 6.46794133 0 0 Z " fill="#B1C8EB" transform="translate(375,272)"/>
<path d="M0 0 C-3.34520258 1.93242285 -6.44767482 2.5463853 -10.25 3.125 C-11.32765625 3.29257812 -12.4053125 3.46015625 -13.515625 3.6328125 C-14.33546875 3.75398437 -15.1553125 3.87515625 -16 4 C-16 3.34 -16 2.68 -16 2 C-10.60539047 -0.27141454 -5.73842251 -0.20413361 0 0 Z " fill="#244174" transform="translate(64,769)"/>
<path d="M0 0 C0.66 0.33 1.32 0.66 2 1 C-0.60313168 4.90469752 -2.49467394 5.06786357 -7 6 C-9.2265625 5.546875 -9.2265625 5.546875 -11 5 C-9.730447 4.35165346 -8.45930294 3.70642185 -7.1875 3.0625 C-6.47980469 2.70285156 -5.77210938 2.34320312 -5.04296875 1.97265625 C-3 1 -3 1 0 0 Z " fill="#3B5270" transform="translate(724,693)"/>
<path d="M0 0 C0.66 0.33 1.32 0.66 2 1 C-0.13790949 3.35170044 -2.00593401 4.88791835 -5 6 C-8.25 6.125 -8.25 6.125 -11 6 C-7.57874946 3.12614955 -4.16111563 1.54115394 0 0 Z " fill="#42556C" transform="translate(353,853)"/>
<path d="M0 0 C0.66 0.33 1.32 0.66 2 1 C1.01 1.33 0.02 1.66 -1 2 C-1 2.66 -1 3.32 -1 4 C-4.4019487 6.09350689 -7.05272412 6.17942163 -11 6 C-7.57874946 3.12614955 -4.16111563 1.54115394 0 0 Z " fill="#374F6F" transform="translate(423,823)"/>
<path d="M0 0 C-2.60313168 3.90469752 -4.49467394 4.06786357 -9 5 C-11.4375 4.625 -11.4375 4.625 -13 4 C-12.01 4 -11.02 4 -10 4 C-10 3.34 -10 2.68 -10 2 C-8.71211992 1.46987262 -7.41953322 0.9511671 -6.125 0.4375 C-5.40570312 0.14746094 -4.68640625 -0.14257812 -3.9453125 -0.44140625 C-2 -1 -2 -1 0 0 Z " fill="#3D536F" transform="translate(689,710)"/>
<path d="M0 0 C-1.33302292 2.66604583 -2.18990481 2.99124788 -5 4 C-7.69159843 4.16468671 -10.29843606 4.09005213 -13 4 C-10.56272708 2.37515139 -8.62713877 1.34310925 -5.9375 0.3125 C-5.24527344 0.04050781 -4.55304687 -0.23148438 -3.83984375 -0.51171875 C-2 -1 -2 -1 0 0 Z " fill="#2D4776" transform="translate(822,653)"/>
<path d="M0 0 C3.05906926 2.51066469 3.75191278 4.90059933 4.6875 8.6875 C5.06455078 10.17830078 5.06455078 10.17830078 5.44921875 11.69921875 C5.63097656 12.45847656 5.81273437 13.21773438 6 14 C5.34 13.67 4.68 13.34 4 13 C4 12.34 4 11.68 4 11 C3.34 11 2.68 11 2 11 C2 8.69 2 6.38 2 4 C1.34 4 0.68 4 0 4 C0 2.68 0 1.36 0 0 Z " fill="#355DA7" transform="translate(665,442)"/>
<path d="M0 0 C0 0.33 0 0.66 0 1 C-1.74816858 1.50636607 -3.49862263 2.00484619 -5.25 2.5 C-6.22453125 2.7784375 -7.1990625 3.056875 -8.203125 3.34375 C-11 4 -11 4 -15 4 C-15 3.34 -15 2.68 -15 2 C-9.75614911 0.2520497 -5.52677733 -0.19392201 0 0 Z " fill="#234075" transform="translate(45,773)"/>
<path d="M0 0 C-3.3730619 2.96829447 -6.62968884 4.06350475 -11 5 C-13.21875 4.546875 -13.21875 4.546875 -15 4 C-12.87875034 3.13656176 -10.75286928 2.28449352 -8.625 1.4375 C-6.84996094 0.72400391 -6.84996094 0.72400391 -5.0390625 -0.00390625 C-2 -1 -2 -1 0 0 Z " fill="#3B4E69" transform="translate(514,786)"/>
<path d="M0 0 C-1.30636994 2.61273988 -2.28409758 2.97236124 -5 4 C-8.25 4.125 -8.25 4.125 -11 4 C-9.71264403 1.42528807 -8.71510189 1.29583343 -6.0625 0.3125 C-5.35222656 0.04050781 -4.64195312 -0.23148438 -3.91015625 -0.51171875 C-2 -1 -2 -1 0 0 Z " fill="#3A4F70" transform="translate(548,771)"/>
<path d="M0 0 C-5.71735105 2.45029331 -9.79029227 3.33266291 -16 3 C-16 2.67 -16 2.34 -16 2 C-14.08654673 1.46748234 -12.1690705 0.94940517 -10.25 0.4375 C-9.18265625 0.14746094 -8.1153125 -0.14257812 -7.015625 -0.44140625 C-4.15664073 -0.97098494 -2.68402617 -0.98370862 0 0 Z " fill="#B69D55" transform="translate(360,704)"/>
<path d="M0 0 C-2.58926331 2.58926331 -4.02705279 2.37398043 -7.625 2.625 C-8.62789063 2.69976563 -9.63078125 2.77453125 -10.6640625 2.8515625 C-11.82035156 2.92503906 -11.82035156 2.92503906 -13 3 C-13 2.34 -13 1.68 -13 1 C-11.58622218 0.63447197 -10.16879424 0.28304505 -8.75 -0.0625 C-7.96109375 -0.25972656 -7.1721875 -0.45695313 -6.359375 -0.66015625 C-3.89605178 -1.01497267 -2.34395868 -0.76877544 0 0 Z " fill="#234279" transform="translate(431,686)"/>
<path d="M0 0 C-5.36439644 2.68219822 -9.01006953 3.3152595 -15 3 C-15 2.67 -15 2.34 -15 2 C-13.35 2 -11.7 2 -10 2 C-10 1.34 -10 0.68 -10 0 C-6.33694766 -0.74926071 -3.57644848 -1.2380014 0 0 Z " fill="#BEA052" transform="translate(484,676)"/>
<path d="M0 0 C3.59478807 3.32850747 6.22364768 6.98971331 9 11 C8.01 11.495 8.01 11.495 7 12 C4.34737821 10.67368911 3.78900251 9.14656892 2.375 6.5625 C1.92898437 5.75941406 1.48296875 4.95632813 1.0234375 4.12890625 C0 2 0 2 0 0 Z " fill="#1F4A9C" transform="translate(176,514)"/>
<path d="M0 0 C0.66 0 1.32 0 2 0 C5 6.625 5 6.625 5 10 C4.34 10 3.68 10 3 10 C2.34 8.02 1.68 6.04 1 4 C0.01 4.495 0.01 4.495 -1 5 C-0.67 3.35 -0.34 1.7 0 0 Z " fill="#214EA0" transform="translate(473,282)"/>
<path d="M0 0 C0 0.66 0 1.32 0 2 C-3.44833324 4.05257931 -5.31661591 5.0632763 -9.375 4.6875 C-10.24125 4.460625 -11.1075 4.23375 -12 4 C-8.36043372 1.57362248 -4.44144233 0 0 0 Z " fill="#204481" transform="translate(335,863)"/>
<path d="M0 0 C-1.5625 2 -1.5625 2 -4 4 C-7.75 4.25 -7.75 4.25 -11 4 C-9.71264403 1.42528807 -8.71510189 1.29583343 -6.0625 0.3125 C-5.35222656 0.04050781 -4.64195312 -0.23148438 -3.91015625 -0.51171875 C-2 -1 -2 -1 0 0 Z " fill="#45576F" transform="translate(462,808)"/>
<path d="M0 0 C0.98484375 0.02707031 1.9696875 0.05414062 2.984375 0.08203125 C3.73203125 0.11683594 4.4796875 0.15164063 5.25 0.1875 C5.25 0.5175 5.25 0.8475 5.25 1.1875 C3.68883181 1.52701619 2.12598662 1.85882544 0.5625 2.1875 C-0.74267578 2.4659375 -0.74267578 2.4659375 -2.07421875 2.75 C-4.68712964 3.17722047 -7.10813038 3.26366201 -9.75 3.1875 C-6.47698081 0.21840402 -4.36934238 -0.15604794 0 0 Z " fill="#224075" transform="translate(289.75,716.8125)"/>
<path d="M0 0 C0.66 0.33 1.32 0.66 2 1 C0.72807637 3.54384726 -0.19948469 3.69368156 -2.8125 4.6875 C-3.49957031 4.95949219 -4.18664062 5.23148438 -4.89453125 5.51171875 C-7.29376496 6.06812731 -8.6894364 5.77364938 -11 5 C-9.21289414 4.13633178 -7.4201535 3.28431406 -5.625 2.4375 C-4.62726563 1.96183594 -3.62953125 1.48617187 -2.6015625 0.99609375 C-1.74304688 0.66738281 -0.88453125 0.33867188 0 0 Z " fill="#334B6D" transform="translate(439,816)"/>
<path d="M0 0 C1.98 0 3.96 0 6 0 C2.25474201 3.74525799 -1.98270909 3.68909949 -7 4 C-7 3.34 -7 2.68 -7 2 C-4.69 2 -2.38 2 0 2 C0 1.34 0 0.68 0 0 Z " fill="#183D7D" transform="translate(124,753)"/>
<path d="M0 0 C1.74627478 2.61941217 2.38722388 4.03824877 3 7 C2.360625 7.268125 1.72125 7.53625 1.0625 7.8125 C-1.33131686 8.88667752 -1.33131686 8.88667752 -2 12 C-1.33333333 8 -0.66666667 4 0 0 Z " fill="#3059A8" transform="translate(323,490)"/>
<path d="M0 0 C2 2 2 2 2.125 5.125 C2.08375 6.07375 2.0425 7.0225 2 8 C1.01 8.33 0.02 8.66 -1 9 C-1.33 9.66 -1.66 10.32 -2 11 C-1.855625 10.29875 -1.71125 9.5975 -1.5625 8.875 C-0.98521625 5.92443859 -0.48304859 2.96729849 0 0 Z " fill="#2E57A8" transform="translate(738,364)"/>
<path d="M0 0 C0.99 0 1.98 0 3 0 C2.01 3.3 1.02 6.6 0 10 C-0.66 9.34 -1.32 8.68 -2 8 C-1.69347955 5.0574037 -1.32728846 2.65457692 0 0 Z " fill="#204EA2" transform="translate(376,262)"/>
<path d="M0 0 C-0.3125 1.875 -0.3125 1.875 -1 4 C-1.99 4.66 -2.98 5.32 -4 6 C-4 5.34 -4 4.68 -4 4 C-4.66 4 -5.32 4 -6 4 C-5.67 3.01 -5.34 2.02 -5 1 C-2 0 -2 0 0 0 Z " fill="#244780" transform="translate(608,744)"/>
<path d="M0 0 C0.66 0.33 1.32 0.66 2 1 C0.375 3.0625 0.375 3.0625 -2 5 C-5.25 4.75 -5.25 4.75 -8 4 C-5.31143836 2.20762558 -3.0466145 1.01553817 0 0 Z " fill="#2C4B76" transform="translate(632,733)"/>
<path d="M0 0 C4.29 0 8.58 0 13 0 C13 0.33 13 0.66 13 1 C11.1746875 1.2165625 11.1746875 1.2165625 9.3125 1.4375 C6.17329623 1.82780953 3.0924866 2.32351856 0 3 C0 2.01 0 1.02 0 0 Z " fill="#3D5377" transform="translate(709,621)"/>
<path d="M0 0 C0.99 0.33 1.98 0.66 3 1 C3.625 3.875 3.625 3.875 4 7 C3.34 7.66 2.68 8.32 2 9 C1.34 6.03 0.68 3.06 0 0 Z " fill="#18469D" transform="translate(733,487)"/>
<path d="M0 0 C1.98 0 3.96 0 6 0 C3.57244264 2.42755736 1.10810492 3.57545191 -2 5 C-2.66 5 -3.32 5 -4 5 C-3.67 4.01 -3.34 3.02 -3 2 C-2.01 2 -1.02 2 0 2 C0 1.34 0 0.68 0 0 Z " fill="#DCB246" transform="translate(537,771)"/>
<path d="M0 0 C-1.43671568 0.64757625 -2.87440416 1.29299453 -4.3125 1.9375 C-5.11300781 2.29714844 -5.91351562 2.65679688 -6.73828125 3.02734375 C-9 4 -9 4 -12 5 C-11.67 3.68 -11.34 2.36 -11 1 C-4.03571429 -1.27678571 -4.03571429 -1.27678571 0 0 Z " fill="#DBB147" transform="translate(724,694)"/>
<path d="M0 0 C3.63 0 7.26 0 11 0 C11 0.33 11 0.66 11 1 C7.37 1.66 3.74 2.32 0 3 C0 2.01 0 1.02 0 0 Z " fill="#344C6E" transform="translate(338,705)"/>
<path d="M0 0 C-2 2 -2 2 -4.1640625 2.1953125 C-5.38222656 2.16050781 -5.38222656 2.16050781 -6.625 2.125 C-7.44226563 2.10695313 -8.25953125 2.08890625 -9.1015625 2.0703125 C-9.72804688 2.04710937 -10.35453125 2.02390625 -11 2 C-7.00042393 -0.06874624 -4.43559483 -1.37656391 0 0 Z " fill="#DEB346" transform="translate(711,625)"/>
<path d="M0 0 C3.3 1.65 6.6 3.3 10 5 C6 6 6 6 2.75 4.1875 C1.8425 3.465625 0.935 2.74375 0 2 C0 1.34 0 0.68 0 0 Z " fill="#1A4797" transform="translate(394,528)"/>
<path d="M0 0 C2.45823172 3.68734758 3.01242616 6.69699971 4 11 C3.34 10.67 2.68 10.34 2 10 C2 9.34 2 8.68 2 8 C1.34 8 0.68 8 0 8 C0 5.36 0 2.72 0 0 Z " fill="#ACC4E4" transform="translate(745,524)"/>
<path d="M0 0 C0.66 0.99 1.32 1.98 2 3 C-0.31 4.98 -2.62 6.96 -5 9 C-5.66 8.67 -6.32 8.34 -7 8 C-6.21625 7.236875 -5.4325 6.47375 -4.625 5.6875 C-1.92742283 3.09108195 -1.92742283 3.09108195 0 0 Z " fill="#D4E3F7" transform="translate(269,486)"/>
<path d="M0 0 C2.35333796 4.70667591 2.17102038 6.8693886 2 12 C1.67 11.01 1.34 10.02 1 9 C0.34 9 -0.32 9 -1 9 C-0.67 6.03 -0.34 3.06 0 0 Z " fill="#BFD0F1" transform="translate(737,278)"/>
<path d="M0 0 C0.66 0 1.32 0 2 0 C0.60667426 3.36720387 -0.9789286 4.9859524 -4 7 C-4 5.35 -4 3.7 -4 2 C-2.68 2 -1.36 2 0 2 C0 1.34 0 0.68 0 0 Z " fill="#2554A2" transform="translate(391,243)"/>
<path d="M0 0 C1.98 0 3.96 0 6 0 C2.79663178 2.83374881 0.21912747 3.5205537 -4 4 C-4 3.34 -4 2.68 -4 2 C-2.68 2 -1.36 2 0 2 C0 1.34 0 0.68 0 0 Z " fill="#CFA94E" transform="translate(552,765)"/>
<path d="M0 0 C0 0.66 0 1.32 0 2 C-3.82989106 3.80230168 -6.78121808 4.19622241 -11 4 C-7.61125486 1.74083657 -4.15175481 0 0 0 Z " fill="#2E4A6F" transform="translate(737,689)"/>
<path d="M0 0 C0 0.66 0 1.32 0 2 C-3.82989106 3.80230168 -6.78121808 4.19622241 -11 4 C-7.61125486 1.74083657 -4.15175481 0 0 0 Z " fill="#294670" transform="translate(802,661)"/>
<path d="M0 0 C2.475 0.99 2.475 0.99 5 2 C5 3.65 5 5.3 5 7 C3.29115995 5.37660195 1.62553283 3.70680947 0 2 C0 1.34 0 0.68 0 0 Z " fill="#254F9E" transform="translate(223,486)"/>
<path d="M0 0 C0.66 0 1.32 0 2 0 C2.55827609 1.26362492 3.09612097 2.5362919 3.625 3.8125 C3.92664063 4.52019531 4.22828125 5.22789062 4.5390625 5.95703125 C4.69117188 6.63121094 4.84328125 7.30539062 5 8 C4.01 9.485 4.01 9.485 3 11 C2.01 7.37 1.02 3.74 0 0 Z " fill="#1C4797" transform="translate(722,456)"/>
<path d="M0 0 C1.9453125 0.2421875 1.9453125 0.2421875 4.125 0.875 C4.84945312 1.07867187 5.57390625 1.28234375 6.3203125 1.4921875 C6.87460937 1.65976562 7.42890625 1.82734375 8 2 C8 2.66 8 3.32 8 4 C4.7 3.34 1.4 2.68 -2 2 C-1.34 1.34 -0.68 0.68 0 0 Z " fill="#DFEDF9" transform="translate(669,275)"/>
<path d="M0 0 C0.66 0 1.32 0 2 0 C3.60355101 3.50776784 4.22036864 6.14354879 4 10 C0 4 0 4 0 0 Z " fill="#1C4999" transform="translate(732,261)"/>
<path d="M0 0 C2.04119788 1.61594832 4.04072937 3.2856382 6 5 C6 5.66 6 6.32 6 7 C3.5625 6.3125 3.5625 6.3125 1 5 C0.1875 2.375 0.1875 2.375 0 0 Z " fill="#CFE1F2" transform="translate(720,248)"/>
<path d="M0 0 C-3.20336822 2.83374881 -5.78087253 3.5205537 -10 4 C-10 3.34 -10 2.68 -10 2 C-6.49223216 0.39644899 -3.85645121 -0.22036864 0 0 Z " fill="#BBA055" transform="translate(804,659)"/>
<path d="M0 0 C4.95 0.99 4.95 0.99 10 2 C10 2.33 10 2.66 10 3 C6.7 3 3.4 3 0 3 C0 2.01 0 1.02 0 0 Z " fill="#214E9A" transform="translate(416,538)"/>
<path d="M0 0 C1.4540625 0.0309375 1.4540625 0.0309375 2.9375 0.0625 C-0.26586822 2.89624881 -2.84337253 3.5830537 -7.0625 4.0625 C-6.4025 3.7325 -5.7425 3.4025 -5.0625 3.0625 C-4.7325 2.4025 -4.4025 1.7425 -4.0625 1.0625 C-3.0625 0.0625 -3.0625 0.0625 0 0 Z " fill="#DEEDFC" transform="translate(493.0625,533.9375)"/>
<path d="M0 0 C0 0.99 0 1.98 0 3 C-1.98 3.66 -3.96 4.32 -6 5 C-6.66 4.34 -7.32 3.68 -8 3 C-2.25 0 -2.25 0 0 0 Z " fill="#214F9E" transform="translate(715,404)"/>
</svg>
